<svg width="50" height="50" viewBox="0 0 50 50" fill="none" xmlns="http://www.w3.org/2000/svg">

    // AboutUs
    <g id="arrow" clip-path="url(#clip0_48_299)">
        <path d="M15.75 2.9062C15.75 3.1562 15.6567 3.3687 15.47 3.5437L8.23 10.3312L6.87 11.6062C6.68333 11.7812 6.45667 11.8687 6.19 11.8687C5.92333 11.8687 5.69667 11.7812 5.51 11.6062L4.15 10.3312L0.53 6.93745C0.343333 6.76245 0.25 6.54995 0.25 6.29995C0.25 6.04995 0.343333 5.83745 0.53 5.66245L1.89 4.38745C2.07667 4.21245 2.30333 4.12495 2.57 4.12495C2.83667 4.12495 3.06333 4.21245 3.25 4.38745L6.19 7.15308L12.75 0.993701C12.9367 0.818701 13.1633 0.731201 13.43 0.731201C13.6967 0.731201 13.9233 0.818701 14.11 0.993701L15.47 2.2687C15.6567 2.4437 15.75 2.6562 15.75 2.9062Z" fill="#2661E9" />
    </g>

    //CardCar
    <g id="calendar" clip-path="url(#clip0_48_299)">
        <path
                d="M14.25 14.25H3.75V6H14.25M12 0.75V2.25H6V0.75H4.5V2.25H3.75C2.9175 2.25 2.25 2.9175 2.25 3.75V14.25C2.25 14.6478 2.40804 15.0294 2.68934 15.3107C2.97064 15.592 3.35218 15.75 3.75 15.75H14.25C14.6478 15.75 15.0294 15.592 15.3107 15.3107C15.592 15.0294 15.75 14.6478 15.75 14.25V3.75C15.75 3.35218 15.592 2.97064 15.3107 2.68934C15.0294 2.40804 14.6478 2.25 14.25 2.25H13.5V0.75M12.75 9H9V12.75H12.75V9Z"
                fill="#393939"/>
    </g>

    <g id="gear" clip-path="url(#clip0_48_299)">
        <path
                d="M13.8126 8.50008C13.8126 8.33716 13.8055 8.18133 13.7914 8.01841L15.1089 7.01966C15.3922 6.80716 15.4701 6.4105 15.293 6.09883L13.9685 3.81091C13.8835 3.66088 13.7462 3.54752 13.5827 3.4926C13.4193 3.43769 13.2413 3.4451 13.083 3.51341L11.5601 4.158C11.298 3.97383 11.0218 3.81091 10.7314 3.67633L10.526 2.04008C10.4835 1.68591 10.1789 1.41675 9.82471 1.41675H7.18263C6.82138 1.41675 6.5168 1.68591 6.4743 2.04008L6.26888 3.67633C5.97846 3.81091 5.70221 3.97383 5.44013 4.158L3.91721 3.51341C3.59138 3.37175 3.20888 3.49925 3.0318 3.81091L1.70721 6.10592C1.53013 6.41758 1.60805 6.80717 1.89138 7.02675L3.20888 8.0255C3.17952 8.34357 3.17952 8.66367 3.20888 8.98175L1.89138 9.9805C1.60805 10.193 1.53013 10.5897 1.70721 10.9013L3.0318 13.1892C3.20888 13.5009 3.59138 13.6284 3.91721 13.4867L5.44013 12.8422C5.70221 13.0263 5.97846 13.1892 6.26888 13.3238L6.4743 14.9601C6.5168 15.3142 6.82138 15.5834 7.17555 15.5834H9.81763C10.1718 15.5834 10.4764 15.3142 10.5189 14.9601L10.7243 13.3238C11.0147 13.1892 11.291 13.0263 11.553 12.8422L13.076 13.4867C13.4018 13.6284 13.7843 13.5009 13.9614 13.1892L15.286 10.9013C15.463 10.5897 15.3851 10.2001 15.1018 9.9805L13.7843 8.98175C13.8055 8.81883 13.8126 8.663 13.8126 8.50008ZM8.52846 10.9792C7.16138 10.9792 6.0493 9.86717 6.0493 8.50008C6.0493 7.133 7.16138 6.02092 8.52846 6.02092C9.89555 6.02092 11.0076 7.133 11.0076 8.50008C11.0076 9.86717 9.89555 10.9792 8.52846 10.9792Z"
                fill="#393939"/>
    </g>

    <g id="speedometer" clip-path="url(#clip0_48_299)">
        <path
                d="M8.00017 10.6667C7.46973 10.6667 6.96102 10.456 6.58595 10.0809C6.21088 9.70581 6.00017 9.1971 6.00017 8.66667C6.00017 7.92 6.40683 7.26667 7.00017 6.92667L13.4735 3.18L9.78683 9.56667C9.4535 10.22 8.78017 10.6667 8.00017 10.6667ZM8.00017 2C9.20683 2 10.3335 2.33333 11.3135 2.88L9.9135 3.68667C9.3335 3.46 8.66683 3.33333 8.00017 3.33333C6.58568 3.33333 5.22912 3.89524 4.22893 4.89543C3.22874 5.89562 2.66683 7.25218 2.66683 8.66667C2.66683 10.14 3.26017 11.4733 4.22683 12.4333H4.2335C4.4935 12.6933 4.4935 13.1133 4.2335 13.3733C3.9735 13.6333 3.54683 13.6333 3.28683 13.38C2.66685 12.7617 2.17512 12.0271 1.83991 11.2182C1.50469 10.4094 1.3326 9.54224 1.3335 8.66667C1.3335 6.89856 2.03588 5.20286 3.28612 3.95262C4.53636 2.70238 6.23206 2 8.00017 2ZM14.6668 8.66667C14.6668 10.5067 13.9202 12.1733 12.7135 13.38C12.4535 13.6333 12.0335 13.6333 11.7735 13.3733C11.7117 13.3117 11.6627 13.2384 11.6292 13.1577C11.5958 13.0771 11.5785 12.9906 11.5785 12.9033C11.5785 12.816 11.5958 12.7296 11.6292 12.6489C11.6627 12.5683 11.7117 12.495 11.7735 12.4333C12.2693 11.9396 12.6624 11.3525 12.9302 10.706C13.1979 10.0595 13.335 9.36641 13.3335 8.66667C13.3335 8 13.2068 7.33333 12.9735 6.73333L13.7802 5.33333C14.3335 6.33333 14.6668 7.45333 14.6668 8.66667Z"
                fill="#393939"/>
    </g>

    //Form
    <g id="ok" clip-path="url(#clip0_48_299)">
        <path d="M40.1683 75.7921C48.4104 75.792 56.3974 72.9341 62.7685 67.7054C69.1397 62.4766 73.5007 55.2005 75.1086 47.1169C76.7164 39.0332 75.4717 30.6421 71.5864 23.3733C67.701 16.1045 61.4156 10.4078 53.8009 7.25375C46.1862 4.09972 37.7135 3.68355 29.8264 6.07614C21.9393 8.46873 15.1258 13.522 10.5468 20.3751C5.96781 27.2281 3.90668 35.4568 4.71459 43.6591C5.5225 51.8615 9.14947 59.5299 14.9775 65.3579" stroke="#4ECB71" stroke-width="8" stroke-linecap="round"/>
        <path d="M56.0026 32.2504L41.7605 49.3425C39.1678 52.4537 37.8695 54.0133 36.1239 54.0925C34.3822 54.1716 32.9453 52.7348 30.0795 49.8689L24.3359 44.1254" stroke="#4ECB71" stroke-width="8" stroke-linecap="round"/>
    </g>
</svg>
